# Blender v2.93.1 OBJ File: ''
# www.blender.org
mtllib simpuk.mtl
o Cube_Cube.001
v -0.248039 0.073024 0.265459
v -0.248039 0.220257 0.265459
v -0.248039 0.073024 -0.265459
v -0.248039 0.220257 -0.265459
v 0.333373 0.074603 0.227862
v 0.333373 0.221836 0.227862
v 0.333373 0.074603 -0.231376
v 0.333373 0.221836 -0.231376
v -0.332154 0.073024 -0.142014
v -0.332154 0.073024 0.142012
v -0.332154 0.220257 0.142012
v -0.332154 0.220257 -0.142014
v 0.380477 0.073024 0.093767
v 0.380477 0.073024 -0.093767
v 0.380477 0.220257 -0.093767
v 0.380477 0.220257 0.093767
v -0.367484 0.073024 0.000000
v -0.367484 0.220257 0.000000
v 0.380477 0.073024 0.000000
v 0.380477 0.220257 0.000000
v -0.106098 0.073024 -0.367484
v -0.106098 0.220257 -0.367484
v -0.106098 0.073024 0.367484
v -0.106098 0.220257 0.367484
v -0.106098 0.284235 -0.184156
v -0.106098 0.284235 0.184156
v -0.106098 0.073024 -0.184156
v -0.106098 0.073024 0.184156
v -0.106098 0.073024 0.000000
v -0.106098 0.284235 0.000000
v 0.263293 0.220257 -0.367484
v 0.263293 0.073024 0.367484
v 0.263292 0.284235 -0.184156
v 0.263292 0.284235 0.184156
v 0.263293 0.284235 0.000000
v 0.263293 0.073024 -0.367484
v 0.263293 0.220257 0.367484
v 0.263292 0.073024 -0.184156
v 0.263292 0.073024 0.184156
v 0.263293 0.073024 0.000000
v -0.263230 0.113383 0.279598
v -0.263230 0.113383 -0.279571
v 0.349120 0.115046 -0.243675
v 0.349120 0.115046 0.240001
v 0.398731 0.113383 -0.098744
v 0.398731 0.113383 0.098770
v -0.353700 0.113383 0.149585
v -0.353700 0.113383 -0.149555
v -0.389030 0.113383 0.000013
v 0.398731 0.113383 0.000013
v -0.113736 0.113383 0.387052
v -0.113736 0.113383 -0.387025
v 0.275311 0.113383 0.387052
v 0.275311 0.113383 -0.387025
v 0.127556 0.064861 -0.403167
v 0.127556 0.226390 0.403167
v 0.127556 0.064861 -0.202038
v 0.127556 0.064861 0.202037
v 0.127556 0.064861 -0.000000
v 0.127556 0.226390 -0.403167
v 0.127556 0.064861 0.403167
v 0.127556 0.296581 -0.202038
v 0.127556 0.296581 0.202037
v 0.127556 0.296581 -0.000000
v 0.132822 0.109138 -0.424606
v 0.132822 0.109138 0.424635
v 0.447357 0.087126 -0.000003
v 0.447357 0.087126 -0.139210
v 0.447357 0.127484 -0.146597
v 0.447357 0.127484 0.146631
v 0.447357 0.087126 0.139203
v 0.447357 0.127484 0.000017
v 0.486874 0.087126 -0.000004
v 0.486874 0.087126 -0.149384
v 0.486874 0.127484 -0.157312
v 0.486874 0.127484 0.157346
v 0.486874 0.087126 0.149376
v 0.486874 0.127484 0.000017
v 0.522091 0.095163 0.000000
v 0.522091 0.095163 -0.089881
v 0.522091 0.119447 -0.094651
v 0.522091 0.119447 0.094677
v 0.522091 0.095163 0.089881
v 0.522091 0.119447 0.000013
vt 0.948363 0.198889
vt 0.820551 0.194640
vt 0.820430 0.105705
vt 0.948298 0.104552
vt 0.051255 0.486421
vt 0.180431 0.498156
vt 0.180611 0.566383
vt 0.051445 0.558279
vt 0.048219 0.748688
vt 0.177548 0.747172
vt 0.180611 0.831514
vt 0.051445 0.837518
vt 0.322888 0.683321
vt 0.450732 0.683379
vt 0.452037 0.787290
vt 0.324262 0.792762
vt 0.245956 0.404427
vt 0.333039 0.416929
vt 0.256302 0.452549
vt 0.167479 0.480423
vt 0.681274 0.515051
vt 0.707767 0.384522
vt 0.766932 0.433750
vt 0.815028 0.517538
vt 0.736706 0.090510
vt 0.795928 0.173072
vt 0.820430 0.251498
vt 0.680872 0.212023
vt 0.649900 0.298272
vt 0.815558 0.326667
vt 0.772662 0.384522
vt 0.618928 0.384522
vt 0.482096 0.175755
vt 0.452888 0.262180
vt 0.413317 0.339190
vt 0.403619 0.251750
vt 0.324787 0.328089
vt 0.373178 0.378060
vt 0.177548 0.638903
vt 0.048219 0.634658
vt 0.048219 0.691673
vt 0.177548 0.693038
vt 0.450937 0.868669
vt 0.323161 0.879423
vt 0.950695 0.282956
vt 0.822707 0.275095
vt 0.447795 0.931195
vt 0.319794 0.944324
vt 0.553321 0.153276
vt 0.519342 0.247901
vt 0.139692 0.015303
vt 0.251081 0.094231
vt 0.172249 0.170569
vt 0.064311 0.059107
vt 0.093417 0.246908
vt 0.018109 0.133042
vt 0.227270 0.000000
vt 0.329558 0.018235
vt 0.485363 0.342526
vt 0.614578 0.019964
vt 0.678804 0.653273
vt 0.825547 0.656001
vt 0.014940 0.322904
vt 0.000000 0.220083
vt 0.311362 0.546810
vt 0.452037 0.553779
vt 0.822707 0.006436
vt 0.950695 0.000000
vt 0.180431 0.922474
vt 0.051255 0.933318
vt 0.257582 0.815844
vt 0.257582 0.603207
vt 0.257582 0.709525
vt 0.354622 0.185836
vt 0.268136 0.269587
vt 0.181650 0.353339
vt 0.440720 0.102461
vt 0.095553 0.436714
vt 0.536112 0.884061
vt 0.676112 0.888772
vt 0.662408 0.968820
vt 0.534551 0.968820
vt 0.482096 0.877734
vt 0.485564 0.958758
vt 0.003063 0.833331
vt 0.002883 0.924290
vt 0.997724 0.105964
vt 1.000000 0.006695
vt 0.257582 0.557148
vt 0.273488 0.686449
vt 0.684262 0.758890
vt 0.728918 0.737383
vt 0.723164 0.788149
vt 0.676112 0.801500
vt 0.273693 0.871740
vt 0.270550 0.934265
vt 1.000000 0.275355
vt 0.997845 0.194900
vt 0.274793 0.790361
vt 0.728918 0.805445
vt 0.734294 0.756802
vt 0.773169 0.737383
vt 0.773169 0.786287
vt 0.003063 0.568200
vt 0.000000 0.640720
vt 0.000000 0.748989
vt 0.002883 0.499973
vt 0.262200 0.499497
vt 0.310999 0.486421
vt 0.498219 0.739015
vt 0.547880 0.737383
vt 0.675063 0.749076
vt 0.439444 0.496427
vt 0.677186 0.734897
vt 0.810941 0.737383
vt 0.537931 0.000000
vt 0.482096 0.121513
vt 0.587537 0.736140
vt 0.580450 0.654637
vt 0.497888 0.737383
vt 0.482096 0.656001
vt 0.728918 0.810640
vt 0.681887 0.824161
vt 0.856731 0.642550
vt 0.856731 0.569589
vt 0.880017 0.566183
vt 0.880017 0.644475
vt 0.825547 0.649439
vt 0.825547 0.600294
vt 0.401833 0.407647
vt 0.342242 0.465353
vt 0.825547 0.698584
vt 0.856731 0.715510
vt 0.461423 0.349942
vt 0.354206 0.486421
vt 0.418151 0.424498
vt 0.433282 0.440127
vt 0.394807 0.477386
vt 0.473534 0.486421
vt 0.473534 0.563018
vt 0.452037 0.567920
vt 0.452037 0.521832
vt 0.482096 0.362575
vt 0.880017 0.722768
vt 0.475638 0.639615
vt 0.475638 0.688520
vt 0.452037 0.689033
vt 0.452039 0.640102
vt 0.834373 0.418659
vt 0.863656 0.415605
vt 0.863656 0.470257
vt 0.834373 0.470550
vt 0.863656 0.524909
vt 0.834373 0.522440
vt 0.825547 0.389597
vt 0.874215 0.384522
vt 0.473534 0.639615
vt 0.452037 0.614008
vt 0.874215 0.566183
vt 0.825547 0.562080
vt 0.471758 0.402868
vn -0.9050 -0.1413 -0.4012
vn -0.6968 0.6501 -0.3030
vn -0.5637 0.6105 -0.5562
vn -0.7077 -0.1382 -0.6928
vn 0.6164 -0.1343 -0.7759
vn 0.5083 0.5761 -0.6401
vn 0.7878 0.5170 -0.3348
vn 0.9109 -0.1292 -0.3917
vn 0.5525 0.5271 0.6456
vn 0.8257 0.5500 0.1251
vn 0.7894 0.5144 0.3350
vn 0.9116 -0.1291 0.3902
vn -0.3759 -0.1314 0.9173
vn -0.3069 0.6125 0.7284
vn -0.5637 0.6106 0.5562
vn -0.7077 -0.1383 0.6929
vn 0.0363 -0.9993 0.0027
vn 0.2040 -0.9550 0.2151
vn 0.5152 -0.8293 0.2163
vn 0.4104 -0.7909 0.4538
vn -0.1628 0.9736 0.1597
vn -0.6968 0.6501 0.3030
vn -0.3069 0.6124 -0.7285
vn -0.1628 0.9736 -0.1597
vn -0.1552 0.9879 0.0000
vn -0.7594 0.6506 0.0000
vn 0.4070 -0.7917 -0.4556
vn 0.5165 -0.8283 -0.2170
vn 0.2041 -0.9555 -0.2130
vn 0.0362 -0.9993 -0.0026
vn 0.0300 -0.9995 0.0000
vn 0.1037 -0.9946 0.0000
vn 0.8254 0.5511 -0.1227
vn 0.5564 0.5282 -0.6414
vn 0.5309 0.8474 0.0000
vn 0.8138 0.5811 0.0000
vn -0.9050 -0.1414 0.4013
vn -0.9897 -0.1430 0.0000
vn 0.0234 0.9840 -0.1763
vn 0.0190 0.9998 0.0000
vn -0.5024 -0.8341 -0.2277
vn -0.0175 -0.9998 0.0000
vn -0.5604 -0.8282 0.0000
vn -0.5023 -0.8341 0.2276
vn -0.3974 -0.8301 -0.3911
vn -0.2320 -0.8131 -0.5339
vn 0.0234 0.9840 0.1763
vn 0.0410 0.6299 -0.7756
vn 0.0410 0.6300 0.7755
vn -0.2319 -0.8133 0.5336
vn -0.3973 -0.8302 0.3909
vn 0.0622 -0.1411 0.9880
vn -0.3759 -0.1313 -0.9173
vn 0.5112 0.5753 0.6384
vn 0.6200 -0.1341 0.7730
vn 0.3244 0.9320 0.1618
vn 0.3221 0.9329 -0.1608
vn 0.2909 0.9567 0.0000
vn 0.0125 -0.9999 0.0000
vn 0.0301 -0.8285 -0.5591
vn 0.0301 -0.8286 0.5589
vn 0.0622 -0.1410 -0.9880
vn -0.3068 -0.6888 0.6568
vn -0.3816 0.6334 0.6732
vn -0.3815 0.6337 -0.6729
vn -0.3069 -0.6885 -0.6571
vn 0.3208 -0.6636 0.6758
vn 0.3185 0.5316 0.7848
vn -0.1407 0.9901 0.0000
vn 0.1119 0.9937 0.0000
vn 0.1119 -0.9937 0.0000
vn 0.7818 -0.6235 0.0000
vn 0.7953 -0.5835 0.1643
vn 0.3185 0.5320 -0.7846
vn 0.7818 0.6235 0.0000
vn 0.8132 0.5426 -0.2104
vn 0.3208 -0.6632 -0.6761
vn 0.7953 -0.5834 -0.1644
vn 0.8132 0.5425 0.2105
usemtl None
s 1
f 48/1/1 12/2/2 4/3/3 42/4/4
f 54/5/5 31/6/6 8/7/7 43/8/8
f 46/9/9 16/10/10 6/11/11 44/12/12
f 51/13/13 24/14/14 2/15/15 41/16/16
f 39/17/17 13/18/18 5/19/19 32/20/20
f 26/21/21 11/22/22 2/23/15 24/24/14
f 22/25/23 4/26/3 12/27/2 25/28/24
f 30/29/25 18/30/26 11/31/22 26/32/21
f 36/33/27 7/34/28 14/35/29 38/36/30
f 40/37/31 19/38/32 13/18/18 39/17/17
f 43/8/8 8/7/7 15/39/33 45/40/34
f 50/41/35 20/42/36 16/10/10 46/9/9
f 41/16/16 2/15/15 11/43/22 47/44/37
f 49/45/38 18/46/26 12/2/2 48/1/1
f 47/44/37 11/43/22 18/47/26 49/48/38
f 45/40/34 15/39/33 20/42/36 50/41/35
f 38/36/30 14/35/29 19/38/32 40/37/31
f 25/28/24 12/27/2 18/30/26 30/29/25
f 62/49/39 25/28/24 30/29/25 64/50/40
f 9/51/41 27/52/42 29/53/42 17/54/43
f 17/54/43 29/53/42 28/55/42 10/56/44
f 3/57/45 21/58/46 27/52/42 9/51/41
f 64/50/40 30/29/25 26/32/21 63/59/47
f 60/60/48 22/25/23 25/28/24 62/49/39
f 63/61/47 26/21/21 24/24/14 56/62/49
f 10/56/44 28/55/42 23/63/50 1/64/51
f 66/65/52 56/66/49 24/14/14 51/13/13
f 42/4/4 4/3/3 22/67/23 52/68/53
f 44/12/12 6/11/11 37/69/54 53/70/55
f 16/10/10 34/71/56 37/69/54 6/11/11
f 8/7/7 31/6/6 33/72/57 15/39/33
f 20/42/36 35/73/58 34/71/56 16/10/10
f 15/39/33 33/72/57 35/73/58 20/42/36
f 57/74/59 38/36/30 40/37/31 59/75/59
f 59/75/59 40/37/31 39/17/17 58/76/59
f 55/77/60 36/33/27 38/36/30 57/74/59
f 58/76/59 39/17/17 32/20/20 61/78/61
f 65/79/62 60/80/48 31/81/6 54/82/5
f 55/83/60 65/79/62 54/82/5 36/84/27
f 5/85/19 44/12/12 53/70/55 32/86/20
f 3/87/45 42/4/4 52/68/53 21/88/46
f 61/89/61 66/65/52 51/13/13 23/90/50
f 46/91/9 13/92/18 71/93/63 70/94/64
f 10/95/44 47/44/37 49/48/38 17/96/43
f 17/97/43 49/45/38 48/1/1 9/98/41
f 1/99/51 41/16/16 47/44/37 10/95/44
f 14/100/29 45/101/34 69/102/65 68/103/66
f 7/104/28 43/8/8 45/40/34 14/105/29
f 23/90/50 51/13/13 41/16/16 1/99/51
f 13/106/18 46/9/9 44/12/12 5/85/19
f 36/107/27 54/5/5 43/8/8 7/104/28
f 9/98/41 48/1/1 42/4/4 3/87/45
f 32/108/20 53/109/55 66/65/52 61/89/61
f 21/110/46 52/111/53 65/79/62 55/83/60
f 52/111/53 22/112/23 60/80/48 65/79/62
f 28/55/42 58/76/59 61/78/61 23/63/50
f 21/58/46 55/77/60 57/74/59 27/52/42
f 29/53/42 59/75/59 58/76/59 28/55/42
f 27/52/42 57/74/59 59/75/59 29/53/42
f 53/109/55 37/113/54 56/66/49 66/65/52
f 34/114/56 63/61/47 56/62/49 37/115/54
f 31/116/6 60/60/48 62/49/39 33/117/57
f 35/118/58 64/119/40 63/61/47 34/114/56
f 33/120/57 62/121/39 64/119/40 35/118/58
f 70/94/64 71/93/63 77/122/67 76/123/68
f 72/124/69 70/125/64 76/126/68 78/127/70
f 50/128/35 46/129/9 70/125/64 72/124/69
f 13/18/18 19/38/32 67/130/32 71/131/63
f 45/132/34 50/128/35 72/124/69 69/133/65
f 19/38/32 14/35/29 68/134/66 67/130/32
f 77/135/67 73/136/71 79/137/72 83/138/73
f 75/139/74 78/140/70 84/141/75 81/142/76
f 67/130/32 68/134/66 74/143/77 73/136/71
f 69/133/65 72/124/69 78/127/70 75/144/74
f 71/131/63 67/130/32 73/136/71 77/135/67
f 68/145/66 69/146/65 75/147/74 74/148/77
f 80/149/78 81/150/76 84/151/75 79/152/72
f 79/152/72 84/151/75 82/153/79 83/154/73
f 74/155/77 75/156/74 81/150/76 80/149/78
f 78/140/70 76/157/68 82/158/79 84/141/75
f 76/159/68 77/160/67 83/154/73 82/153/79
f 73/136/71 74/143/77 80/161/78 79/137/72
